<svg xmlns="http://www.w3.org/2000/svg" id="Layer_1" data-name="Layer 1" viewBox="0 0 51.24 48"><defs><style>.cls-1{fill:#57bae5}.cls-2{fill:#005472}.cls-3{fill:#34afe4}.cls-4{fill:#0076a7}.cls-5{fill:#009de2}.cls-6{fill:#7acdf2}.cls-7{fill:#00abe7}.cls-8{fill:#008dbe}.cls-9{fill:#00698d}.cls-10{fill:#09a1cb}.cls-11{fill:#8bdaff}</style></defs><title>Artboard 1 copy 22</title><polygon points="18.51 10.02 16.1 19.44 -.03 21.59 18.51 10.02" class="cls-1"/><polygon points="26.9 30.9 21.68 28.69 22.88 48 26.9 30.9" class="cls-2"/><polygon points="16.1 19.44 11.85 28.35 -.03 21.59 16.1 19.44" class="cls-3"/><polygon points="21.68 28.69 11.85 28.35 22.88 48 21.68 28.69" class="cls-4"/><polygon points="16.1 19.44 21.68 28.69 11.85 28.35 16.1 19.44" class="cls-5"/><polygon points="18.51 10.02 31.75 11.8 16.1 19.44 18.51 10.02" class="cls-6"/><polygon points="46.54 5.74 38.11 15.76 38.71 6.49 46.54 5.74" class="cls-6"/><polygon points="46.54 5.74 51.21 0 50.18 6.19 46.54 5.74" class="cls-6"/><polygon points="42.16 10.95 50.18 6.19 46.54 5.74 42.16 10.95" class="cls-7"/><polygon points="26.9 30.9 27.3 19.41 21.68 28.69 26.9 30.9" class="cls-4"/><polygon points="27.3 19.41 21.68 28.69 16.1 19.44 27.3 19.41" class="cls-8"/><polygon points="31.89 11.73 27.3 19.41 16.1 19.44 31.89 11.73" class="cls-1"/><polyline points="27.3 19.41 26.9 30.9 37.17 41.66 27.3 19.41" class="cls-9"/><polygon points="42.54 35.65 37.12 21.86 37.17 41.66 42.54 35.65" class="cls-10"/><polygon points="38.11 15.76 37.12 21.86 27.3 19.41 38.11 15.76" class="cls-10"/><polygon points="43.09 24.05 37.12 21.86 38.11 15.76 43.09 24.05" class="cls-11"/><polygon points="45.23 35.26 38.72 24.59 42.43 24.59 45.23 35.26" class="cls-6"/><polygon points="33.11 9.47 38.11 15.76 38.71 6.49 33.11 9.47" class="cls-1"/><polygon points="37.12 21.86 27.3 19.41 37.17 41.66 37.12 21.86" class="cls-8"/><polygon points="42.54 35.65 44.71 36.88 37.2 41.66 42.54 35.65" class="cls-4"/><polygon points="45.23 35.14 37.12 21.86 42.54 35.65 45.23 35.14" class="cls-1"/><polygon points="33.11 9.47 27.3 19.41 38.11 15.76 33.11 9.47" class="cls-6"/></svg>