<svg xmlns="http://www.w3.org/2000/svg" xmlns:svg="http://www.w3.org/2000/svg" xmlns:xlink="http://www.w3.org/1999/xlink" id="svg1155" width="512" height="512" version="1.1" viewBox="0 0 512 512"><metadata id="metadata1159"/><title id="title1146">nimiq</title><desc id="desc1148">Created with Sketch.</desc><rect id="rect1704" width="512" height="512" x="0" y="-512" ry="89.825" transform="rotate(90)" style="opacity:1;fill:url(#radialGradient847);fill-opacity:1;stroke:none;stroke-width:1.70666659;stroke-linecap:round;stroke-linejoin:round;stroke-miterlimit:4;stroke-dasharray:none;stroke-opacity:1"/><defs id="defs1150"><linearGradient id="linearGradient841"><stop id="stop837" offset="0" style="stop-color:#260133;stop-opacity:1"/><stop id="stop839" offset="1" style="stop-color:#1f2348;stop-opacity:1"/></linearGradient><style id="style1593">.cls-1{fill:url(#radial-gradient)}</style><radialGradient id="radial-gradient" cx="54.17" cy="63.17" r="72.02" gradientTransform="matrix(5.6323013,0,0,5.6323013,53.251171,75.766392)" gradientUnits="userSpaceOnUse"><stop id="stop1595" offset="0" stop-color="#ec991c"/><stop id="stop1597" offset="1" stop-color="#e9b213"/></radialGradient><radialGradient id="radialGradient847" cx="454.583" cy="-457.2" r="256" fx="454.583" fy="-457.2" gradientTransform="matrix(-1.9999996,1.6216618e-7,-1.6401428e-7,-1.9999999,1421.1658,-1426.4009)" gradientUnits="userSpaceOnUse" xlink:href="#linearGradient841"/></defs><path style="fill:url(#radial-gradient);stroke-width:5.63230133" id="path1604" d="M 454.27107,239.1031 369.78654,92.663262 A 33.793808,33.793808 0 0 0 340.49858,75.766358 H 171.52954 A 33.793808,33.793808 0 0 0 142.2979,92.663262 L 57.757052,239.1031 a 33.793808,33.793808 0 0 0 0,33.7938 l 84.484518,146.43984 a 33.793808,33.793808 0 0 0 29.28797,16.8969 h 168.96904 a 33.793808,33.793808 0 0 0 29.23164,-16.8969 L 454.21474,272.8969 a 33.793808,33.793808 0 0 0 0.0564,-33.7938 z" class="cls-1"/></svg>